<svg  viewBox="0 0 845 878" fill="none" xmlns="http://www.w3.org/2000/svg">
<g clip-path="url(#clip0)">
<path opacity="0.27" d="M76.5052 481.422C67.8221 530.198 -38.9046 598.182 95.436 767.32C173.454 865.552 270.506 813.852 293.609 820.507C330.741 831.207 362.709 873.485 401.249 875.86C445.055 878.47 676.918 893.293 773.058 783.97C780.737 775.301 787.468 765.834 793.136 755.733C830.241 689.602 677.544 667.393 825.443 514.07C853.109 485.362 867.164 298.425 757.178 237.957C695.849 204.292 728 188.268 626.305 61.2509C569.826 -9.21251 435.016 -17.9813 366.49 30.4297C359.363 35.4752 352.409 40.1902 345.63 44.5746C185.631 148.652 112.281 90.5845 32.3856 205.231C-64.4063 344.096 87.7959 418.135 76.5052 481.422Z" fill="#75000C"/>
<path opacity="0.27" d="M259.919 576.208C271.549 624.358 201.119 729.531 392.017 830.398C502.89 888.987 571.025 802.604 594.78 799.447C633.058 794.227 679.316 820.194 715.561 806.832C725.704 803.1 746.591 795.454 772.927 783.971C780.606 775.301 787.337 765.835 793.005 755.733C830.11 689.602 677.413 667.393 825.312 514.07C852.979 485.363 867.033 298.426 757.047 237.958C695.848 204.292 727.999 188.268 626.305 61.2511C569.825 -9.21226 435.016 -17.981 366.489 30.4299C359.362 35.4755 352.409 40.1904 345.629 44.5748L344.403 46.5582C233.896 229.92 136.843 198.107 108.551 341.017C75.7484 507.102 244.847 513.704 259.919 576.208Z" fill="#75000C"/>
<path opacity="0.25" d="M414.964 40.3728C414.964 40.3728 330.193 149.774 422.5 243.125L388.602 261.915C388.602 261.915 334.939 210.842 339.345 159.299C343.752 107.757 351.053 80.7457 414.964 40.3728Z" fill="url(#paint0_linear)"/>
<path opacity="0.27" d="M615.406 188.268C613.45 264.499 615.406 282.48 615.406 282.48C615.406 282.48 757.048 347.541 757.048 443.058C757.048 538.576 714.519 587.874 714.519 587.874C714.519 587.874 668.522 584.377 657.387 562.35C646.253 540.324 664.037 448.774 664.037 448.774L616.084 427.478C616.084 427.478 622.785 518.141 585.289 587.874C547.792 657.606 522.265 712.777 535.042 742.502C547.819 772.227 552.043 812.626 552.043 812.626L509.409 857.957C509.409 857.957 489.383 874.294 466.046 844.909C442.708 815.523 456.867 683.991 451.678 677.362C446.489 670.734 422.474 609.717 422.474 609.717C422.474 609.717 389.228 593.641 367.194 611.257C345.16 628.873 317.364 717.057 309.228 723.659C301.093 730.262 281.067 786.424 281.067 786.424L222.762 794.384L210.82 762.858L263.857 667.393L270.793 576.234L294.652 536.096L390.036 476.829L395.851 408.036C395.851 408.036 307.403 466.494 281.119 468.373C254.835 470.252 173.454 460.178 173.454 460.178L134.341 427.478L194.001 417.927L309.176 392.899L422.422 315.128L489.67 166.711L487.063 123.781C487.063 123.781 617.362 112.037 615.406 188.268Z" fill="#75000C"/>
<path d="M515.198 767.373C515.198 767.373 544.533 799.185 531.965 814.974C519.396 830.763 462.004 863.516 447.22 857.2C432.435 850.885 433.53 829.798 442.761 815.731C451.991 801.665 462.474 787.024 462.474 787.024L515.198 767.373Z" fill="#75000C"/>
<path d="M249.046 724.207C249.046 724.207 249.62 753.123 237.964 767.32C226.309 781.517 137.209 749.052 134.732 736.943C132.254 724.833 146.387 711.315 169.699 711.002C182.898 711.095 195.971 708.428 208.082 703.172C208.082 703.172 251.445 701.163 249.046 724.207Z" fill="#75000C"/>
<path opacity="0.49" d="M329.463 153.897C329.463 179.225 336.967 203.984 351.027 225.044C365.086 246.103 385.07 262.517 408.45 272.21C431.83 281.903 457.557 284.439 482.377 279.497C507.197 274.556 529.996 262.359 547.891 244.45C565.785 226.54 577.971 203.722 582.908 178.881C587.845 154.039 585.312 128.291 575.627 104.891C565.943 81.4905 549.543 61.4902 528.501 47.4187C507.46 33.3472 482.721 25.8366 457.415 25.8366C440.605 25.8125 423.956 29.1085 408.421 35.5356C392.887 41.9627 378.772 51.3947 366.886 63.291C354.999 75.1874 345.575 89.3142 339.154 104.862C332.732 120.41 329.439 137.073 329.463 153.897V153.897Z" fill="#75000C"/>
<path d="M388.68 261.915C411.335 276.315 437.938 283.226 464.73 281.671C491.522 280.116 517.148 270.175 537.988 253.251C537.988 253.251 506.698 236.444 457.154 237.931C416.372 239.262 388.68 254.869 388.68 261.915Z" fill="#75000C"/>
<path d="M182.163 417.9C186.079 423.637 191.177 428.469 197.113 432.07C203.05 435.671 209.689 437.959 216.582 438.778C229.849 440.318 243.227 440.667 256.556 439.822C321.249 436.142 380.075 369.881 380.075 369.881C380.075 369.881 378.302 451.775 360.049 470.722C341.797 489.668 289.802 492.8 256.556 510.599C220.911 529.702 207.326 617.338 201.798 666.714C197.417 706.435 200.807 720.475 222.658 729.348C237.391 735.351 252.071 732.663 256.191 702.207C273.609 573.102 367.116 585.681 386.985 576.208C390.714 574.433 393.504 574.512 395.616 576.051C400.518 579.627 401.561 591.136 401.561 605.385C401.561 617.52 400.805 631.639 401.014 644.531C401.614 678.954 424.847 752.34 457.05 782.509C467.48 792.374 477.754 795.166 486.672 794.462C494.959 793.563 502.815 790.302 509.305 785.067C511.906 783.059 513.847 780.319 514.879 777.198C515.911 774.077 515.986 770.719 515.094 767.555C508.08 742.449 494.755 669.846 545.993 593.928C609.409 499.977 594.963 364.531 594.963 364.531C594.963 364.531 628.861 386.74 646.957 402.45C665.054 418.161 646.644 469.312 650.816 483.823C660.569 517.541 702.107 513.287 702.107 513.287C707.12 513.13 712.035 511.862 716.499 509.574C720.963 507.286 724.864 504.035 727.921 500.055V500.055C738.821 486.537 746.539 459.317 734.571 404.512C712.615 304.063 569.826 261.837 542.317 254.582C539.344 253.799 537.727 253.433 537.727 253.433L388.419 261.993C388.419 261.993 284.874 343.574 249.359 357.276C233.601 363.151 216.467 364.276 200.077 360.512C194.825 359.339 189.323 360.243 184.722 363.034C180.12 365.826 176.774 370.289 175.383 375.492L174.914 377.214C173.082 384.114 172.781 391.332 174.034 398.361C175.286 405.39 178.061 412.059 182.163 417.9Z" fill="#75000C"/>
<path opacity="0.25" d="M182.163 417.9C186.079 423.637 191.177 428.469 197.113 432.07C203.05 435.671 209.689 437.959 216.582 438.778C229.849 440.318 243.227 440.667 256.556 439.822C321.249 436.142 380.075 369.881 380.075 369.881C380.075 369.881 378.302 451.775 360.049 470.722C341.797 489.668 289.802 492.8 256.556 510.599C220.911 529.702 207.326 617.338 201.798 666.714C197.417 706.435 200.807 720.475 222.658 729.348C237.391 735.351 252.071 732.663 256.191 702.207C273.609 573.102 367.116 585.681 386.985 576.208C390.714 574.433 393.504 574.512 395.616 576.051C400.518 579.627 401.561 591.136 401.561 605.385C401.561 617.52 400.805 631.639 401.014 644.531C401.614 678.954 424.847 752.34 457.05 782.509C467.48 792.374 477.754 795.166 486.672 794.462C494.959 793.563 502.815 790.302 509.305 785.067C511.906 783.059 513.847 780.319 514.879 777.198C515.911 774.077 515.986 770.719 515.094 767.555C508.08 742.449 494.755 669.846 545.993 593.928C609.409 499.977 594.963 364.531 594.963 364.531C594.963 364.531 628.861 386.74 646.957 402.45C665.054 418.161 646.644 469.312 650.816 483.823C660.569 517.541 702.107 513.287 702.107 513.287C707.12 513.13 712.035 511.862 716.499 509.574C720.963 507.286 724.864 504.035 727.921 500.055V500.055C738.821 486.537 746.539 459.317 734.571 404.512C712.615 304.063 569.826 261.837 542.317 254.582C539.344 253.799 537.727 253.433 537.727 253.433L388.419 261.993C388.419 261.993 284.874 343.574 249.359 357.276C233.601 363.151 216.467 364.276 200.077 360.512C194.825 359.339 189.323 360.243 184.722 363.034C180.12 365.826 176.774 370.289 175.383 375.492L174.914 377.214C173.082 384.114 172.781 391.332 174.034 398.361C175.286 405.39 178.061 412.059 182.163 417.9Z" fill="url(#paint1_linear)"/>
<path opacity="0.25" d="M535.041 275.825C535.041 275.825 659.213 318.469 677.413 367.402C695.614 416.334 699.108 450.783 699.108 450.783L728 500.055C738.899 486.537 746.617 459.317 734.649 404.512C712.693 304.063 569.904 261.837 542.395 254.582L535.041 275.825Z" fill="white"/>
<path opacity="0.25" d="M388.68 261.915C411.335 276.315 437.938 283.226 464.73 281.671C491.522 280.116 517.148 270.175 537.988 253.251C537.988 253.251 506.698 236.444 457.154 237.931C416.372 239.262 388.68 254.869 388.68 261.915Z" fill="url(#paint2_linear)"/>
<path d="M728 500.055C728 500.055 728.391 451.905 689.486 448.956C650.582 446.007 650.895 483.823 650.895 483.823C650.895 483.823 670.66 519.785 702.185 513.287C722.133 509.19 728 500.055 728 500.055Z" fill="url(#paint3_linear)"/>
<path opacity="0.25" d="M486.828 794.462C494.928 793.591 502.619 790.452 509.018 785.406C511.745 783.362 513.793 780.543 514.896 777.317C515.998 774.091 516.103 770.607 515.198 767.32C508.158 742.032 495.068 669.637 546.15 593.928C609.565 499.977 595.119 364.531 595.119 364.531C595.119 364.531 553.033 340.625 544.168 358.346C535.302 376.066 561.456 387.627 542.082 463.336C522.708 539.045 499.37 584.585 473.842 631.248C448.315 677.91 461.535 786.92 486.828 794.462Z" fill="url(#paint4_linear)"/>
<path opacity="0.25" d="M493.321 346.837C493.321 346.837 428.497 339.19 410.87 344.383C393.243 349.577 393.243 445.146 383.257 469.652C383.257 469.652 377.52 473.54 389.828 476.881C402.135 480.221 465.446 498.542 477.05 491.861C488.653 485.18 500.857 450.757 507.819 428.548C514.781 406.339 525.889 361.869 519.24 354.092C512.591 346.315 493.321 346.837 493.321 346.837Z" fill="url(#paint5_linear)"/>
<path opacity="0.25" d="M182.815 364.531C182.815 364.531 193.897 363.043 197.6 378.049C201.302 393.055 197.991 414.012 194.106 417.926C190.22 421.841 190.194 423.459 182.163 417.926C174.132 412.394 164.692 392.977 164.692 392.977C164.692 392.977 163.024 361.477 182.815 364.531Z" fill="url(#paint6_linear)"/>
<path d="M182.815 364.53C181.902 375.152 188.76 398.04 182.815 405.425C176.87 412.811 116.375 406.104 100.834 364.53C85.2927 322.957 107.509 326.559 112.776 327.107C118.043 327.655 151.889 349.89 151.889 349.89C151.889 349.89 134.393 336.006 142.163 330.447C149.934 324.888 183.727 353.883 182.815 364.53Z" fill="#75000C"/>
<path opacity="0.25" d="M182.815 364.53C181.902 375.152 188.76 398.04 182.815 405.425C176.87 412.811 116.375 406.104 100.834 364.53C85.2927 322.957 107.509 326.559 112.776 327.107C118.043 327.655 151.889 349.89 151.889 349.89C151.889 349.89 134.393 336.006 142.163 330.447C149.934 324.888 183.727 353.883 182.815 364.53Z" fill="url(#paint7_linear)"/>
<path d="M711.572 493.061C711.572 493.061 702.237 460.596 676.318 470.121C650.399 479.647 640.204 507.754 640.334 508.981C640.464 510.207 643.228 523.935 654.858 516.471C666.488 509.007 668.861 511.669 668.574 512.947C668.287 514.226 659.187 536.827 646.279 540.324C633.372 543.821 645.002 562.481 657.44 562.35C669.878 562.22 697.074 552.981 699.89 548.518C702.706 544.056 721.846 514.983 711.572 493.061Z" fill="#75000C"/>
<path opacity="0.25" d="M711.572 493.061C711.572 493.061 702.237 460.596 676.318 470.121C650.399 479.647 640.204 507.754 640.334 508.981C640.464 510.207 643.228 523.935 654.858 516.471C666.488 509.007 668.861 511.669 668.574 512.947C668.287 514.226 659.187 536.827 646.279 540.324C633.372 543.821 645.002 562.481 657.44 562.35C669.878 562.22 697.074 552.981 699.89 548.518C702.706 544.056 721.846 514.983 711.572 493.061Z" fill="url(#paint8_linear)"/>
<path opacity="0.25" d="M222.814 729.374C237.547 735.377 252.227 732.689 256.347 702.233C273.766 573.128 367.272 585.707 387.142 576.234C390.87 574.459 393.661 574.538 395.773 576.077C395.773 576.077 390.219 556.452 369.515 553.477C348.811 550.502 281.797 553.477 270.715 576.234C259.633 598.991 223.779 668.645 222.814 729.374Z" fill="url(#paint9_linear)"/>
<path opacity="0.25" d="M182.163 417.9C186.079 423.637 191.176 428.469 197.113 432.07C203.05 435.671 209.689 437.959 216.582 438.778C229.849 440.318 243.227 440.667 256.556 439.822C321.249 436.142 380.075 369.881 380.075 369.881C380.91 352.421 373.113 342.609 373.113 342.609C373.113 342.609 317.338 391.646 272.54 408.27C227.743 424.894 180.051 390.158 182.163 417.9Z" fill="url(#paint10_linear)"/>
<path d="M490.426 217.915C490.426 217.915 473.947 257.374 498.249 264.603C522.551 271.832 464.56 285.481 446.098 281.932C427.637 278.383 427.845 275.721 427.845 275.721C430.528 273.616 432.405 270.65 433.16 267.323C433.915 263.996 433.502 260.511 431.991 257.452C427.22 245.735 490.426 217.915 490.426 217.915Z" fill="url(#paint11_linear)"/>
<path d="M403.726 141.292C403.726 141.292 395.642 224.544 408.289 240.202C420.935 255.861 439.579 268.414 471.078 242.968C502.578 217.523 513.764 149.67 491.026 136.334C468.288 122.998 427.95 102.955 403.726 141.292Z" fill="url(#paint12_linear)"/>
<path d="M444.169 106.295C444.169 106.295 471.626 108.905 487.167 123.781C502.708 138.656 503.021 140.17 503.021 140.17C503.021 140.17 517.154 137.952 516.867 151.001C516.58 164.049 521.587 163.24 518.796 178.507C516.006 193.774 487.167 227.153 487.167 227.153L499.449 194.009L493.451 197.402C493.451 197.402 501.613 171.826 489.67 166.711C477.728 161.596 460.518 147.947 456.372 147.399C452.226 146.851 415.564 145.181 411.131 150.74C407.449 156.125 404.338 161.881 401.848 167.912C401.848 167.912 391.705 150.74 396.424 137.404C401.144 124.068 408.289 119.135 408.289 119.135L398.928 112.794C398.928 112.794 437.493 100.189 444.169 106.295Z" fill="#001316"/>
<path d="M493.321 197.402C493.321 197.402 509.123 186.284 509.331 197.402C509.54 208.519 499.11 216.505 490.296 217.914C481.483 219.324 493.321 197.402 493.321 197.402Z" fill="url(#paint13_linear)"/>
<path d="M544.168 249.962C544.168 249.962 553.399 252.99 551.991 260.088C550.582 267.187 503.751 305.733 446.281 297.199C388.811 288.665 380.127 268.492 380.127 268.492C380.127 268.492 377.963 259.827 388.732 261.785C399.501 263.742 483.464 297.617 544.168 249.962Z" fill="#75000C"/>
<path opacity="0.25" d="M544.168 249.962C544.168 249.962 553.399 252.99 551.991 260.088C550.582 267.187 503.751 305.733 446.281 297.199C388.811 288.665 380.127 268.492 380.127 268.492C380.127 268.492 377.963 259.827 388.732 261.785C399.501 263.742 483.464 297.617 544.168 249.962Z" fill="url(#paint14_linear)"/>
<path d="M212.41 187.067C212.481 187.538 212.68 187.98 212.984 188.346C213.364 188.659 213.825 188.858 214.314 188.92L223.91 191.191L216.608 193.801C216.002 193.975 215.453 194.308 215.018 194.766C214.661 195.362 214.506 196.058 214.575 196.75L214.444 204.579L208.369 196.254L202.111 201.473L206.283 190.356C203.435 189.691 200.732 188.515 198.304 186.885L204.875 186.18C208.916 185.71 208.838 183.153 210.298 180.047C211.24 182.309 211.947 184.661 212.41 187.067V187.067Z" fill="white"/>
<path d="M123.05 567.857C123.115 568.321 123.314 568.757 123.624 569.109C124.001 569.432 124.462 569.64 124.953 569.71L134.549 571.98L127.248 574.59C126.637 574.754 126.086 575.089 125.657 575.555C125.301 576.152 125.145 576.847 125.214 577.539L125.084 585.368L119.008 577.043L112.75 582.263L116.922 571.145C114.079 570.469 111.377 569.294 108.943 567.674L115.514 566.943C119.556 566.5 119.478 563.942 120.938 560.836C121.879 563.098 122.587 565.451 123.05 567.857Z" fill="white"/>
<path d="M665.966 697.718C666.031 698.183 666.23 698.618 666.54 698.971C666.917 699.293 667.378 699.502 667.87 699.571L677.465 701.841L670.164 704.451C669.558 704.626 669.009 704.959 668.574 705.417C668.217 706.013 668.062 706.709 668.13 707.4V715.229L662.029 706.904L655.771 712.124L659.943 701.006C657.095 700.341 654.392 699.165 651.964 697.535L658.535 696.805C662.576 696.361 662.498 693.803 663.958 690.698C664.876 692.959 665.549 695.313 665.966 697.718V697.718Z" fill="white"/>
<path d="M213.062 499.142C213.096 499.41 213.204 499.663 213.375 499.872C213.599 500.061 213.869 500.187 214.157 500.238L219.737 501.543L215.487 503.109C215.135 503.211 214.819 503.41 214.575 503.683C214.37 504.029 214.279 504.43 214.314 504.831V509.372L210.768 504.518L207.143 507.519L209.568 501.073C207.913 500.673 206.342 499.984 204.927 499.037L208.76 498.62C211.107 498.359 211.054 496.871 211.915 495.071C212.425 496.388 212.809 497.751 213.062 499.142Z" fill="white"/>
<path d="M355.929 726.686C356.018 727.144 356.215 727.573 356.503 727.939C356.888 728.266 357.359 728.475 357.859 728.539L367.429 730.81L360.128 733.419C359.519 733.59 358.969 733.924 358.537 734.385C358.18 734.981 358.025 735.677 358.094 736.368V744.198L351.992 735.873L345.734 741.092L349.906 729.975C347.062 729.298 344.361 728.123 341.927 726.504L348.524 725.773C352.54 725.329 352.461 722.772 353.922 719.666C354.839 721.928 355.512 724.281 355.929 726.686V726.686Z" fill="white"/>
<path d="M281.954 125.503C281.982 125.662 282.045 125.813 282.136 125.947C282.279 126.043 282.438 126.113 282.605 126.155L285.839 126.912L283.362 127.826C283.16 127.889 282.979 128.006 282.84 128.165C282.721 128.361 282.666 128.589 282.684 128.817V131.427L280.624 128.609L278.485 130.331L279.92 126.573C278.99 126.334 278.108 125.936 277.312 125.399L279.529 125.164C280.911 125.007 280.884 124.146 281.38 123.076C281.643 123.866 281.835 124.678 281.954 125.503V125.503Z" fill="white"/>
<path d="M309.724 216.14C309.756 216.295 309.828 216.439 309.932 216.558C310.064 216.658 310.215 216.729 310.376 216.766L313.609 217.523L311.158 218.437C310.946 218.492 310.755 218.61 310.61 218.776C310.494 218.973 310.44 219.2 310.454 219.428V222.038L308.394 219.219L306.282 220.942L307.69 217.184C306.758 216.951 305.875 216.553 305.082 216.009L307.325 215.775C308.681 215.618 308.655 214.757 309.15 213.687C309.429 214.481 309.622 215.304 309.724 216.14V216.14Z" fill="white"/>
<path d="M640.777 202.882C640.814 203.036 640.886 203.178 640.986 203.3C641.111 203.41 641.265 203.482 641.429 203.509L644.689 204.266L642.081 205.179C641.869 205.235 641.678 205.353 641.533 205.518C641.426 205.728 641.373 205.961 641.377 206.197V208.807L639.343 206.014L637.231 207.763L638.639 203.979C637.707 203.745 636.824 203.348 636.032 202.804L638.274 202.569C639.63 202.413 639.604 201.551 640.099 200.508C640.411 201.272 640.638 202.069 640.777 202.882V202.882Z" fill="white"/>
<path d="M720.907 257.739L714.362 243.125C715.082 246.796 714.673 250.6 713.189 254.034C712.404 255.724 711.14 257.147 709.555 258.126C707.97 259.105 706.133 259.596 704.271 259.54C708.443 259.54 713.867 260.48 714.493 264.577C714.884 267.187 713.215 271.049 715.718 272.171L719.264 263.533C721.891 265.056 724.771 266.09 727.765 266.586C726.84 264.86 725.436 263.437 723.723 262.489C726.125 259.924 728.026 256.932 729.329 253.668C727.027 255.004 724.943 256.685 723.15 258.653" fill="white"/>
<path d="M629.695 129.261L627.74 124.903C627.974 125.99 627.855 127.124 627.401 128.139C627.17 128.635 626.801 129.054 626.339 129.346C625.876 129.637 625.34 129.789 624.793 129.783C626.045 129.783 627.661 130.07 627.844 131.297C627.844 132.106 627.453 133.228 628.209 133.541L629.252 130.932C630.061 131.386 630.944 131.695 631.86 131.845C631.594 131.323 631.175 130.895 630.66 130.618C631.368 129.856 631.933 128.972 632.329 128.009C631.654 128.417 631.039 128.917 630.504 129.496" fill="white"/>
<path d="M517.232 252.024C508.758 253.147 504.585 246.805 502.578 238.976C501.198 233.502 500.998 227.796 501.991 222.239C502.985 216.682 505.149 211.4 508.34 206.745C520.465 188.764 541.065 147.895 514.572 105.356C479.084 48.3851 523.621 54.7007 538.04 70.02C621.403 159.091 537.023 249.415 517.232 252.024Z" fill="url(#paint15_linear)"/>
<path d="M468.28 65.176C454.557 62.981 444.514 54.4288 445.848 46.0743C447.182 37.7197 459.388 32.7264 473.111 34.9214C486.834 37.1164 496.877 45.6685 495.543 54.023C494.209 62.3776 482.003 67.371 468.28 65.176Z" fill="url(#paint16_linear)"/>
</g>
<defs>
<linearGradient id="paint0_linear" x1="357.807" y1="88.6272" x2="572.426" y2="411.756" gradientUnits="userSpaceOnUse">
<stop stop-opacity="0"/>
<stop offset="0.91" stop-opacity="0.8"/>
<stop offset="1"/>
</linearGradient>
<linearGradient id="paint1_linear" x1="-117113" y1="65665.4" x2="-108971" y2="151673" gradientUnits="userSpaceOnUse">
<stop stop-opacity="0"/>
<stop offset="0.91" stop-opacity="0.8"/>
<stop offset="1"/>
</linearGradient>
<linearGradient id="paint2_linear" x1="-25123.6" y1="4755.38" x2="-33672.9" y2="4755.38" gradientUnits="userSpaceOnUse">
<stop stop-opacity="0"/>
<stop offset="0.91" stop-opacity="0.8"/>
<stop offset="1"/>
</linearGradient>
<linearGradient id="paint3_linear" x1="-8795.27" y1="12102.5" x2="-3963.32" y2="17131.8" gradientUnits="userSpaceOnUse">
<stop stop-opacity="0"/>
<stop offset="0.91" stop-opacity="0.8"/>
<stop offset="1"/>
</linearGradient>
<linearGradient id="paint4_linear" x1="-19795.1" y1="98873.7" x2="-26935.3" y2="98873.7" gradientUnits="userSpaceOnUse">
<stop stop-opacity="0"/>
<stop offset="0.91" stop-opacity="0.8"/>
<stop offset="1"/>
</linearGradient>
<linearGradient id="paint5_linear" x1="-24317.3" y1="24928.1" x2="-31764.8" y2="24928.1" gradientUnits="userSpaceOnUse">
<stop stop-opacity="0"/>
<stop offset="0.91" stop-opacity="0.8"/>
<stop offset="1"/>
</linearGradient>
<linearGradient id="paint6_linear" x1="-10492.2" y1="8416.49" x2="-10254.7" y2="10166.8" gradientUnits="userSpaceOnUse">
<stop stop-opacity="0"/>
<stop offset="0.91" stop-opacity="0.8"/>
<stop offset="1"/>
</linearGradient>
<linearGradient id="paint7_linear" x1="-29155.1" y1="10407.8" x2="-28781.8" y2="13939.1" gradientUnits="userSpaceOnUse">
<stop stop-opacity="0"/>
<stop offset="0.91" stop-opacity="0.8"/>
<stop offset="1"/>
</linearGradient>
<linearGradient id="paint8_linear" x1="-7017.94" y1="19304.7" x2="-9131.67" y2="19304.7" gradientUnits="userSpaceOnUse">
<stop stop-opacity="0"/>
<stop offset="0.91" stop-opacity="0.8"/>
<stop offset="1"/>
</linearGradient>
<linearGradient id="paint9_linear" x1="-38763.7" y1="45243.1" x2="-50236" y2="45243.1" gradientUnits="userSpaceOnUse">
<stop stop-opacity="0"/>
<stop offset="0.91" stop-opacity="0.8"/>
<stop offset="1"/>
</linearGradient>
<linearGradient id="paint10_linear" x1="-56529.4" y1="14286.8" x2="-48870.6" y2="21545.6" gradientUnits="userSpaceOnUse">
<stop stop-opacity="0"/>
<stop offset="0.91" stop-opacity="0.8"/>
<stop offset="1"/>
</linearGradient>
<linearGradient id="paint11_linear" x1="459.11" y1="246.491" x2="472.847" y2="291.059" gradientUnits="userSpaceOnUse">
<stop stop-color="#ECC4D7"/>
<stop offset="0.42" stop-color="#EFD4D1"/>
<stop offset="1" stop-color="#F2EAC9"/>
</linearGradient>
<linearGradient id="paint12_linear" x1="-18165.6" y1="9587.2" x2="-21272.3" y2="10165.8" gradientUnits="userSpaceOnUse">
<stop stop-color="#ECC4D7"/>
<stop offset="0.42" stop-color="#EFD4D1"/>
<stop offset="1" stop-color="#F2EAC9"/>
</linearGradient>
<linearGradient id="paint13_linear" x1="-3567.34" y1="2274.81" x2="-3758.01" y2="2274.81" gradientUnits="userSpaceOnUse">
<stop stop-color="#ECC4D7"/>
<stop offset="0.42" stop-color="#EFD4D1"/>
<stop offset="1" stop-color="#F2EAC9"/>
</linearGradient>
<linearGradient id="paint14_linear" x1="-32795.3" y1="6217.22" x2="-32897.9" y2="4997.06" gradientUnits="userSpaceOnUse">
<stop stop-opacity="0"/>
<stop offset="0.91" stop-opacity="0.8"/>
<stop offset="1"/>
</linearGradient>
<linearGradient id="paint15_linear" x1="641.043" y1="167.88" x2="141.442" y2="120.211" gradientUnits="userSpaceOnUse">
<stop stop-color="white" stop-opacity="0"/>
<stop offset="1" stop-color="white"/>
</linearGradient>
<linearGradient id="paint16_linear" x1="-9375.5" y1="292.113" x2="-9453.12" y2="1445.53" gradientUnits="userSpaceOnUse">
<stop stop-color="white" stop-opacity="0"/>
<stop offset="1" stop-color="white"/>
</linearGradient>
<clipPath id="clip0">
<rect width="845" height="878" fill="white" transform="matrix(-1 0 0 1 845 0)"/>
</clipPath>
</defs>
</svg>
