<svg width="502" height="649" viewBox="0 0 502 649" fill="none" xmlns="http://www.w3.org/2000/svg">
<path fill-rule="evenodd" clip-rule="evenodd" d="M346.433 246.521C343.34 244.994 341.211 241.807 341.211 238.126V219.414C341.211 214.25 345.402 210.058 350.565 210.058H492.646C497.809 210.058 502 214.25 502 219.414V238.126C502 241.807 499.871 244.994 496.774 246.521C499.871 248.048 502 251.236 502 254.917V273.629C502 276.865 500.354 279.72 497.854 281.4C500.354 283.08 502 285.934 502 289.171V307.884C502 311.121 500.354 313.974 497.854 315.655C500.354 317.333 502 320.19 502 323.423V342.136C502 345.373 500.354 348.226 497.854 349.908C500.354 351.589 502 354.442 502 357.679V376.392C502 379.625 500.354 382.482 497.854 384.164C500.354 385.842 502 388.699 502 391.932V410.645C502 413.882 500.354 416.735 497.854 418.416C500.354 420.098 502 422.951 502 426.188V444.901C502 448.134 500.354 450.991 497.854 452.669C500.354 454.35 502 457.203 502 460.44V479.153C502 482.391 500.354 485.243 497.854 486.925C500.354 488.607 502 491.46 502 494.697V513.41C502 516.643 500.354 519.5 497.854 521.178C500.354 522.859 502 525.712 502 528.949V547.662C502 550.9 500.354 553.752 497.854 555.434C500.354 557.112 502 559.969 502 563.206V581.915C502 585.152 500.354 588.009 497.854 589.686C500.354 591.368 502 594.221 502 597.458V616.171C502 621.334 497.809 625.525 492.646 625.525H350.565C345.402 625.525 341.211 621.334 341.211 616.171V597.458C341.211 594.221 342.856 591.368 345.356 589.686C342.856 588.009 341.211 585.152 341.211 581.915V563.206C341.211 559.969 342.856 557.112 345.356 555.434C342.856 553.752 341.211 550.9 341.211 547.662V528.949C341.211 525.712 342.856 522.859 345.356 521.178C342.856 519.5 341.211 516.643 341.211 513.41V494.697C341.211 491.46 342.856 488.607 345.356 486.925C342.856 485.243 341.211 482.391 341.211 479.153V460.44C341.211 457.203 342.856 454.35 345.356 452.669C342.856 450.991 341.211 448.134 341.211 444.901V426.188C341.211 422.951 342.856 420.098 345.356 418.416C342.856 416.735 341.211 413.882 341.211 410.645V391.932C341.211 388.699 342.856 385.842 345.356 384.164C342.856 382.482 341.211 379.625 341.211 376.392V357.679C341.211 354.442 342.856 351.589 345.356 349.908C342.856 348.226 341.211 345.373 341.211 342.136V323.423C341.211 320.19 342.856 317.333 345.356 315.655C342.856 313.974 341.211 311.121 341.211 307.884V289.171C341.211 285.934 342.856 283.08 345.356 281.4C342.856 279.72 341.211 276.865 341.211 273.629V254.917C341.211 251.236 343.34 248.048 346.433 246.521Z" fill="#FFCD80"/>
<path fill-rule="evenodd" clip-rule="evenodd" d="M458.109 210.058V241.774H475.425C475.656 240.772 476.555 240.023 477.627 240.023C478.698 240.023 479.598 240.772 479.829 241.774H501.051C500.237 243.693 498.804 245.284 497 246.295H479.887V276.999H501.164C500.467 278.802 499.229 280.336 497.646 281.4C497.705 281.439 497.759 281.479 497.818 281.52H493.853V312.007C493.853 312.079 493.849 312.152 493.844 312.224H500.725C499.997 313.607 498.935 314.787 497.646 315.655C498.125 315.976 498.573 316.343 498.984 316.745H475.126V345.744H501.069C500.359 347.444 499.156 348.89 497.646 349.908C497.814 350.021 497.981 350.143 498.139 350.265H488.708V379.964H501.082C500.373 381.682 499.165 383.138 497.646 384.164C497.8 384.264 497.949 384.372 498.098 384.485H472.658V414.23H501.082C500.368 415.939 499.165 417.395 497.646 418.416C497.804 418.525 497.958 418.633 498.107 418.751H487.772V448.771H500.951C500.232 450.358 499.079 451.706 497.646 452.669C497.931 452.863 498.207 453.071 498.469 453.293H468.218V482.621H501.128C500.422 484.38 499.202 485.881 497.646 486.925C497.75 486.993 497.85 487.066 497.949 487.142H481.366V516.444H501.286C500.657 518.275 499.482 519.848 497.949 520.965H466.785V551.184H501.105C500.4 552.921 499.183 554.399 497.646 555.434C497.773 555.52 497.899 555.611 498.026 555.706H484.169V584.998H501.272C500.63 586.834 499.437 588.407 497.886 589.519H452.155V625.526H447.633V589.519H438.501V625.526H433.98V589.519H374.595V625.526H370.074V589.519H344.909C343.358 588.407 342.165 586.834 341.523 584.998H349.557V555.706H344.769C344.891 555.611 345.017 555.52 345.149 555.434C343.611 554.399 342.395 552.921 341.685 551.184H370.729V520.965H344.846C343.313 519.848 342.133 518.275 341.504 516.444H352.807V487.142H344.841C344.941 487.066 345.045 486.993 345.149 486.925C343.593 485.881 342.368 484.38 341.667 482.621H366.222V453.293H344.321C344.588 453.071 344.859 452.863 345.149 452.669C343.715 451.706 342.562 450.358 341.839 448.771H351.668V418.751H344.683C344.837 418.633 344.99 418.525 345.149 418.416C343.629 417.395 342.422 415.939 341.713 414.23H367.849V384.485H344.696C344.846 384.372 344.995 384.264 345.149 384.164C343.625 383.138 342.418 381.682 341.708 379.964H348.517V350.265H344.651C344.814 350.143 344.981 350.021 345.149 349.908C343.634 348.89 342.436 347.444 341.721 345.744H356.492V316.745H343.81C344.222 316.343 344.669 315.976 345.149 315.655C343.86 314.787 342.797 313.607 342.07 312.224H383.09V281.52H359.937C359.643 281.659 359.318 281.736 358.974 281.736C358.626 281.736 358.3 281.659 358.007 281.52H344.972C345.031 281.479 345.09 281.439 345.149 281.4C343.566 280.336 342.327 278.802 341.627 276.999H356.714V246.295H345.795C343.991 245.284 342.553 243.692 341.74 241.774H356.768C357.003 240.772 357.898 240.023 358.974 240.023C360.046 240.023 360.945 240.772 361.176 241.774H389.587V210.058H394.108V241.774H399.013V210.058H403.534V241.774H416.528C416.759 240.772 417.658 240.023 418.734 240.023C419.806 240.023 420.706 240.772 420.936 241.774H427.79C428.025 240.772 428.92 240.023 429.997 240.023C431.068 240.023 431.968 240.772 432.198 241.774H453.588V210.058H458.109ZM354.078 555.706V584.998H394.515V555.706H354.078ZM399.036 555.706V584.998H405.944V555.706H399.036ZM410.465 555.706V584.998H479.648V555.706H410.465ZM375.25 520.965V551.184H417.247V520.965H375.25ZM453.638 520.965H421.768V551.184H453.624V521.205L453.638 520.965ZM458.145 551.184H462.264V520.965H458.132C458.141 521.042 458.145 521.123 458.145 521.205V551.184ZM448.456 487.142V516.444H476.845V487.142H448.456ZM399.162 516.444H443.935V487.142H399.122C399.149 487.278 399.162 487.418 399.162 487.558V516.444ZM394.678 487.142H357.328V516.444H394.641V487.558C394.641 487.423 394.65 487.283 394.678 487.147V487.142ZM431.606 453.293V482.621H463.697V453.293H431.606ZM421.393 453.293V482.621H427.085V453.293H421.393ZM370.743 453.293V482.621H416.872V453.293H370.743ZM390.541 418.751V448.771H445.879V418.751H390.541ZM356.189 418.751V448.771H386.02V418.751H356.189ZM450.4 418.751V448.771H483.251V418.751H450.4ZM411.523 384.485V414.23H416.008V384.485H411.523ZM388.673 414.23H407.002V384.485H372.37V414.23H387.887C388.013 414.207 388.145 414.194 388.28 414.194C388.416 414.194 388.547 414.207 388.673 414.23ZM420.529 384.485V414.23H468.137V384.485H420.529ZM471.071 379.964H484.187V350.265H447.177V379.964H469.724C469.936 379.896 470.162 379.86 470.397 379.86C470.632 379.86 470.859 379.896 471.071 379.964ZM436.285 350.265V379.964H442.656V350.265H436.285ZM353.038 350.265V379.964H397.336V350.265H353.038ZM401.857 350.265V379.964H431.764V350.265H401.857ZM361.013 316.745V345.744H366.533V316.745H361.013ZM423.093 316.745V345.744H470.605V316.745H423.093ZM371.055 316.745V345.744H418.572V316.745H371.055ZM395.613 281.52H387.611V312.224H395.627C395.618 312.152 395.613 312.079 395.613 312.007V281.52ZM450.274 281.52H430.96C430.67 281.659 430.34 281.736 429.997 281.736C429.648 281.736 429.323 281.659 429.029 281.52H419.697C419.404 281.659 419.078 281.736 418.734 281.736C418.386 281.736 418.061 281.659 417.767 281.52H400.135V312.007C400.135 312.079 400.135 312.152 400.125 312.224H450.283C450.274 312.152 450.274 312.079 450.274 312.007V281.52ZM489.332 281.52H478.594C478.3 281.659 477.975 281.736 477.627 281.736C477.283 281.736 476.953 281.659 476.664 281.52H454.795V312.007C454.795 312.079 454.79 312.152 454.781 312.224H489.341C489.336 312.152 489.332 312.079 489.332 312.007V281.52ZM361.235 246.295V276.999H416.474V246.295H361.235ZM420.995 246.295V276.999H427.736V246.295H420.995ZM432.257 246.295V276.999H475.366V246.295H432.257Z" fill="#FDA425"/>
<path fill-rule="evenodd" clip-rule="evenodd" d="M106.072 453.967C103.572 452.289 101.926 449.432 101.926 446.199V427.486C101.926 422.323 106.117 418.128 111.28 418.128H253.357C258.525 418.128 262.716 422.323 262.716 427.486V446.199C262.716 449.432 261.07 452.289 258.57 453.967C261.07 455.649 262.716 458.501 262.716 461.739V480.452C262.716 483.689 261.07 486.542 258.57 488.223C261.07 489.901 262.716 492.758 262.716 495.995V514.704C262.716 517.941 261.07 520.798 258.57 522.476C261.07 524.157 262.716 527.01 262.716 530.248V548.961C262.716 552.198 261.07 555.05 258.57 556.732C261.07 558.41 262.716 561.267 262.716 564.5V583.213C262.716 586.45 261.07 589.303 258.57 590.985C261.07 592.666 262.716 595.519 262.716 598.756V617.469C262.716 622.632 258.525 626.824 253.357 626.824H111.28C106.117 626.824 101.926 622.632 101.926 617.469V598.756C101.926 595.519 103.572 592.666 106.072 590.985C103.572 589.303 101.926 586.45 101.926 583.213V564.5C101.926 561.267 103.572 558.41 106.072 556.732C103.572 555.05 101.926 552.198 101.926 548.961V530.248C101.926 527.01 103.572 524.157 106.072 522.476C103.572 520.798 101.926 517.941 101.926 514.704V495.995C101.926 492.758 103.572 489.901 106.072 488.223C103.572 486.542 101.926 483.689 101.926 480.452V461.739C101.926 458.501 103.572 455.649 106.072 453.967Z" fill="#FFCD80"/>
<path fill-rule="evenodd" clip-rule="evenodd" d="M229.248 450.124H261.773C261.049 451.688 259.906 453.017 258.491 453.967C258.798 454.175 259.092 454.401 259.377 454.645H245.962V483.919V483.924H261.967C261.266 485.683 260.041 487.179 258.491 488.224C258.595 488.296 258.703 488.368 258.807 488.445H232.033V517.525C232.033 517.656 232.024 517.783 232.001 517.905H262.071C261.398 519.754 260.159 521.332 258.563 522.426H250.312V551.7C250.312 551.827 250.298 551.954 250.28 552.076H262.103C261.452 553.916 260.245 555.489 258.68 556.597H234.045V586.387H262.08C261.416 588.236 260.186 589.809 258.599 590.908H249.204V626.824H244.683V590.908H215.517C215.517 590.948 215.522 590.985 215.522 591.021V626.824H211.001V591.021C211.001 590.985 211.001 590.948 211.001 590.908H188.702C188.413 591.043 188.096 591.116 187.762 591.116C187.423 591.116 187.106 591.043 186.817 590.908H157.85V626.824H153.329V590.908H145.426V626.824H140.905V590.908H105.88C104.293 589.809 103.063 588.236 102.398 586.387H133.594V556.597H105.798C104.239 555.489 103.027 553.916 102.376 552.076H113.86V522.426H105.92C104.32 521.332 103.081 519.754 102.407 517.905H130.163V488.445H105.672C105.78 488.368 105.884 488.296 105.993 488.224C104.437 487.179 103.217 485.683 102.512 483.924H112.399V454.645H105.107C105.387 454.401 105.681 454.175 105.993 453.967C104.573 453.017 103.434 451.688 102.706 450.124H123.49V418.128H128.011V450.124H132.64V418.128H137.161V450.124H178.684V418.128H183.205V450.124H224.727V418.128H229.248V450.124ZM138.115 556.597V586.387H185.501V556.597H138.115ZM190.022 556.597V586.387H220.572V556.597H190.022ZM225.093 556.597V586.387H229.524V556.597H225.093ZM118.381 522.426V552.076H154.957V522.426H118.381ZM203.83 522.426H159.478V552.076H203.952C203.875 551.845 203.83 551.596 203.83 551.339V522.426ZM245.791 522.426H208.351V551.339C208.351 551.596 208.31 551.845 208.229 552.076H245.818C245.8 551.954 245.791 551.827 245.791 551.7V522.426ZM134.684 488.445V517.905H169.424V488.445H134.684ZM173.945 488.445V517.905H179.289V488.445H173.945ZM227.512 488.445H183.81V517.905H205.394C205.611 517.832 205.846 517.796 206.091 517.796C206.335 517.796 206.57 517.832 206.791 517.905H227.548C227.525 517.783 227.512 517.656 227.512 517.525V488.445ZM116.92 454.645V483.924H156.733V454.645H116.92ZM161.255 454.645V483.924H197.252V454.645H161.255ZM201.773 454.645V483.924H207.822V454.645H201.773ZM241.441 454.645H212.343V483.924H241.441V483.919V454.645Z" fill="#FDA425"/>
<path fill-rule="evenodd" clip-rule="evenodd" d="M262.728 319.98H306.28C381.209 319.98 442.045 390.618 442.045 477.622C442.045 557.9 390.337 625.486 323.474 635.265C317.868 636.088 263.022 635.265 263.022 635.265C188.093 635.265 127.257 564.627 127.257 477.622C127.257 390.731 187.935 320.16 262.728 319.98Z" fill="#FDA425"/>
<path d="M263.019 635.266C337.998 635.266 398.781 564.687 398.781 477.623C398.781 390.559 337.998 319.98 263.019 319.98C188.039 319.98 127.257 390.559 127.257 477.623C127.257 564.687 188.039 635.266 263.019 635.266Z" fill="#FFCD80"/>
<path fill-rule="evenodd" clip-rule="evenodd" d="M256.476 351.181C311.238 351.181 355.222 408.134 355.222 477.824C355.222 547.511 311.238 604.463 256.476 604.463C254.48 604.463 252.858 606.083 252.858 608.08C252.858 610.076 254.48 611.7 256.476 611.7C314.704 611.7 362.453 551.919 362.453 477.824C362.453 403.726 314.704 343.949 256.476 343.949C254.48 343.949 252.858 345.569 252.858 347.565C252.858 349.562 254.48 351.181 256.476 351.181Z" fill="#FDA425"/>
<path fill-rule="evenodd" clip-rule="evenodd" d="M256.599 604.463C201.833 604.463 157.853 547.511 157.853 477.824C157.853 408.134 201.833 351.181 256.599 351.181C258.595 351.181 260.214 349.562 260.214 347.565C260.214 345.569 258.595 343.949 256.599 343.949C198.371 343.949 150.619 403.726 150.619 477.824C150.619 551.919 198.371 611.7 256.599 611.7C258.595 611.7 260.214 610.076 260.214 608.08C260.214 606.083 258.595 604.463 256.599 604.463Z" fill="#FDA425"/>
<path fill-rule="evenodd" clip-rule="evenodd" d="M362.404 622.333H310.601C308.607 622.333 306.984 620.71 306.984 618.716C306.984 616.718 308.607 615.099 310.601 615.099H372.825C373.246 615.099 373.648 615.172 374.023 615.303C370.262 617.857 366.387 620.204 362.404 622.333ZM421.504 561.429C420.193 563.884 418.832 566.298 417.413 568.663H367.667C365.668 568.663 364.05 567.044 364.05 565.046C364.05 563.048 365.668 561.429 367.667 561.429H421.504ZM431.32 539.348C430.434 541.794 429.493 544.204 428.512 546.582H372.825C370.827 546.582 369.208 544.963 369.208 542.965C369.208 540.971 370.827 539.348 372.825 539.348H431.32ZM441.669 465.929C441.822 468.33 441.926 470.74 441.985 473.163H392.311C390.313 473.163 388.694 471.544 388.694 469.546C388.694 467.552 390.313 465.929 392.311 465.929H441.669ZM433.766 423.349C434.516 425.736 435.226 428.151 435.881 430.583H381.764C379.77 430.583 378.147 428.964 378.147 426.966C378.147 424.972 379.77 423.349 381.764 423.349H433.766ZM426.342 404.021C427.422 406.399 428.458 408.809 429.434 411.255H379.815C377.821 411.255 376.198 409.637 376.198 407.638C376.198 405.644 377.821 404.021 379.815 404.021H426.342ZM378.223 343.949C381.343 346.219 384.377 348.628 387.325 351.183H330.087C328.093 351.183 326.47 349.56 326.47 347.566C326.47 345.568 328.093 343.949 330.087 343.949H378.223Z" fill="#FFCD80"/>
<path fill-rule="evenodd" clip-rule="evenodd" d="M142.911 58.8212C146.111 47.7841 155.23 16.2355 161.811 2.13767L199.689 22.6864C199.689 22.6864 183.37 81.6461 179.851 98.5539L135.796 88.0777C137.133 78.8651 139.691 69.9252 142.911 58.8212Z" fill="#82B5B2"/>
<path d="M163.004 70.9328C170.256 70.9328 176.135 64.7802 176.135 57.1907C176.135 49.6011 170.256 43.4486 163.004 43.4486C155.752 43.4486 149.873 49.6011 149.873 57.1907C149.873 64.7802 155.752 70.9328 163.004 70.9328Z" fill="#A8CFCC" fill-opacity="0.63"/>
<path fill-rule="evenodd" clip-rule="evenodd" d="M153.69 74.0913C155.829 68.1302 167.76 37.2107 175.121 27.9184L209.404 47.1865C209.404 47.1865 190.926 96.2842 186.713 110.421L146.104 99.3731C147.858 91.6415 150.345 83.4144 153.69 74.0913Z" fill="#A8CFCC"/>
<path d="M177.328 85.0264C184.58 85.0264 190.459 78.8738 190.459 71.2843C190.459 63.6947 184.58 57.5421 177.328 57.5421C170.076 57.5421 164.197 63.6947 164.197 71.2843C164.197 78.8738 170.076 85.0264 177.328 85.0264Z" fill="#82B5B2"/>
<path d="M227.632 468.381L252.81 434.935L278.001 468.395L292.651 448.935L252.81 396.014L212.983 448.919L227.633 468.38L227.632 468.381ZM187.987 482.122L202.638 462.659L217.287 482.118L202.637 501.58L187.987 482.122ZM227.632 495.866L252.81 529.31L278 495.85L292.658 515.3L292.651 515.311L252.81 568.231L212.983 515.326L212.962 515.298L227.634 495.864L227.632 495.866ZM288.334 482.131L302.984 462.67L317.634 482.129L302.984 501.591L288.334 482.131Z" fill="#75000C"/>
<path d="M267.669 482.112H267.675L252.81 462.365L241.823 476.956L240.561 478.633L237.958 482.092L237.937 482.119L237.958 482.147L252.81 501.88L267.676 482.133L267.683 482.122L267.67 482.112" fill="#75000C"/>
<path d="M262.215 76.7152C278.21 76.7152 291.177 63.7487 291.177 47.7537C291.177 31.7587 278.21 18.7921 262.215 18.7921C246.22 18.7921 233.253 31.7587 233.253 47.7537C233.253 63.7487 246.22 76.7152 262.215 76.7152Z" fill="#E86135"/>
<path fill-rule="evenodd" clip-rule="evenodd" d="M242.903 26.1363C248.026 21.5695 254.776 18.7921 262.168 18.7921C278.155 18.7921 291.13 31.7696 291.13 47.7537C291.13 53.2378 289.602 58.3684 286.953 62.7408C265.446 53.0787 268.597 29.7672 268.597 29.7672C256.774 33.6296 247.944 29.7179 242.903 26.1363Z" fill="black"/>
<path fill-rule="evenodd" clip-rule="evenodd" d="M363.118 319.519C363.204 319.971 363.281 320.401 363.353 320.812H369.371C372.283 322.856 376.709 326.066 381.506 329.89L383.048 328.154C383.712 327.408 384.856 327.341 385.602 328.005C386.348 328.665 386.416 329.809 385.751 330.555L384.318 332.169C387.04 334.416 389.807 336.821 392.424 339.29L393.351 343.445L363.887 321.427C363.24 321.002 362.956 320.229 363.118 319.519Z" fill="#D7441E"/>
<path fill-rule="evenodd" clip-rule="evenodd" d="M191.114 389.38L216.156 318.281C216.572 317.101 217.865 316.481 219.041 316.897C220.216 317.313 220.836 318.602 220.424 319.782L195.54 390.42C194.071 390.086 192.597 389.737 191.114 389.38ZM123.012 360.838C123.012 360.838 132.705 366.051 141.047 370.364C151.617 375.839 162.69 380.957 158.81 379.316C158.81 379.316 157.73 380.392 155.958 382.621C146.45 378.362 135.504 372.62 127.113 368.045L123.012 360.838ZM76.4444 286.835C83.7008 252.029 110.828 232.253 142.385 221.253C186.991 205.704 240.399 207.811 257.104 208.96C259.559 209.538 263.127 210.303 265.423 210.959C265.554 211.284 266.563 211.908 266.526 212.279C266.395 213.52 268.118 214.429 266.875 214.301C266.875 214.301 197.511 209.918 143.873 225.522C110.57 235.209 87.5483 259.342 79.894 290.739C78.7095 289.62 77.5521 288.309 76.4444 286.835Z" fill="white"/>
<path fill-rule="evenodd" clip-rule="evenodd" d="M243.387 328.996C235.054 327.717 224.484 324.249 213.335 319.714C180.665 306.44 142.846 284.225 142.846 284.225C141.77 283.593 141.412 282.206 142.041 281.13C142.674 280.055 144.062 279.694 145.138 280.327C145.138 280.327 182.636 302.362 215.035 315.528C226.726 320.279 243.997 324.629 242.984 324.525L243.387 328.996Z" fill="#8A2208"/>
<path fill-rule="evenodd" clip-rule="evenodd" d="M138.09 415.877C138.09 415.877 129.622 399.492 138.09 387.217L123.057 360.805C123.057 360.805 115.751 356.125 107.455 350.808C88.6964 338.787 77.9361 317.542 79.3421 295.311C79.4506 293.617 79.645 292.063 79.9389 290.705C71.3126 282.566 64.1873 264.298 66.8096 246.819C70.4581 222.474 90.6811 204.026 115.258 202.626C154.809 200.382 222.685 198.849 264.415 210.816L255.029 187.45C255.029 187.45 188.252 211.328 171.338 156.494C133.003 171.973 90.3149 183.289 48.1056 189.412C30.4597 191.98 13.0488 183.424 4.30039 167.885C4.2823 167.896 4.28229 167.896 4.28229 167.896C-3.11881 154.752 -0.754259 138.274 10.0422 127.74C20.8974 117.267 39.4115 103.719 71.0278 88.1319C71.0278 88.1319 102.698 71.3847 121.244 61.5779C129.531 57.1969 139.356 56.8154 147.955 60.5412C166.225 68.4541 196.408 81.5306 196.408 81.5306L199.934 72.6298C220.894 76.1201 241.488 82.4696 261.679 90.3274C283.123 98.6991 299.738 116.161 307.031 137.99C324.989 191.746 358.897 294.96 363.346 320.815H376.059C383.203 320.815 389.392 325.77 390.952 332.742C392.168 338.19 393.344 343.448 393.344 343.448C393.344 343.448 401.441 352.504 403.81 360.805C404.773 364.186 399.379 368.129 393.344 361.795C391.558 359.918 374.215 346.233 366.425 345.379C360.466 344.723 355.194 344.04 350.28 343.439C335.193 341.59 321.801 332.882 313.984 319.839C308.758 311.122 303.952 303.101 303.952 303.101C303.952 303.101 287.658 329.234 242.93 324.518L249.879 414.85C249.879 414.85 240.954 412.739 237.971 398.154C237.971 398.154 187.564 391.44 158.855 379.282C158.855 379.282 147.53 390.527 138.09 415.877Z" fill="url(#paint0_linear)"/>
<path fill-rule="evenodd" clip-rule="evenodd" d="M261.838 204.393L255.029 187.45C255.029 187.45 188.252 211.328 171.338 156.494C133.003 171.973 90.315 183.289 48.1057 189.412C30.4597 191.98 13.0488 183.424 4.30039 167.885C4.2823 167.896 4.28229 167.896 4.28229 167.896C-3.11881 154.752 -0.75426 138.274 10.0422 127.74C20.8974 117.267 39.4115 103.719 71.0278 88.1319C71.0278 88.1319 102.698 71.3847 121.244 61.5779C129.531 57.1969 139.356 56.8154 147.955 60.5412C166.225 68.4541 196.408 81.5306 196.408 81.5306L199.934 72.6298C220.894 76.1201 241.488 82.4696 261.68 90.3274C283.123 98.6991 299.738 116.161 307.031 137.99C317.818 170.276 334.357 220.402 346.808 260.892L294.761 276.763C283.471 253.088 272.024 229.604 262.019 204.423L261.838 204.393Z" fill="white"/>
<path fill-rule="evenodd" clip-rule="evenodd" d="M245.342 190.095C243.688 181.829 243.299 173.153 243.452 164.302C243.457 163.815 243.81 163.401 244.289 163.312C244.768 163.222 245.243 163.48 245.428 163.931C249.841 174.687 260.646 201.012 260.646 201.012H260.479L255.027 187.441C255.027 187.441 251.279 188.78 245.342 190.095ZM102.248 136.607L46.6883 167.906C45.5987 168.518 45.2144 169.898 45.8247 170.985C46.4396 172.072 47.8185 172.457 48.9081 171.845L104.468 140.547C105.558 139.934 105.942 138.555 105.327 137.468C104.717 136.38 103.338 135.995 102.248 136.607ZM159.635 161.03C161.738 145.824 166.738 135.161 170.219 129.279C170.441 128.955 170.87 128.843 171.227 129.017C171.58 129.191 171.756 129.598 171.634 129.974C168.04 142.895 171.128 155.663 171.327 156.447L171.336 156.485C167.479 158.042 163.578 159.557 159.635 161.03Z" fill="#8A2208"/>
<path fill-rule="evenodd" clip-rule="evenodd" d="M73.4288 86.8465L121.217 61.5761C129.504 57.1951 139.329 56.8135 147.928 60.5394L195.065 80.9596C195.382 81.1702 195.671 81.3601 195.929 81.5288C203.787 86.6779 197.579 91.7687 195.382 91.0422C200.748 93.5925 200.568 97.8306 199.302 99.6671C197.217 102.697 189.758 101.591 189.758 101.591C191.833 102.331 193.736 106.381 192.127 109.385C189.541 114.214 182.465 111.28 182.465 111.28C183.749 118.014 176.786 118.036 168.291 116.238C161.713 114.845 158.697 113.371 153.1 111.975C144.053 136.098 117.04 133.312 117.04 133.312L99.2399 143.403L73.4288 86.8465Z" fill="url(#paint1_linear)"/>
<path fill-rule="evenodd" clip-rule="evenodd" d="M182.484 111.457L152.234 99.7142C151.302 99.353 150.841 98.3041 151.203 97.3736C151.564 96.4432 152.613 95.9811 153.545 96.3424L190.98 110.875C187.896 113.572 182.457 111.317 182.457 111.317C182.466 111.364 182.475 111.411 182.484 111.457ZM190.207 101.846L155.814 88.4946C154.883 88.1333 154.422 87.0849 154.783 86.1544C155.145 85.224 156.194 84.7619 157.125 85.1227L196.545 100.427C196.907 100.567 197.196 100.811 197.395 101.111C194.411 102.319 189.75 101.628 189.75 101.628C189.904 101.683 190.057 101.756 190.207 101.846ZM195.741 91.1449L159.938 77.2455C159.006 76.8843 158.541 75.8354 158.902 74.9049C159.264 73.9745 160.313 73.5124 161.244 73.8737L199.348 88.6664C198.557 90.2253 196.853 91.2109 195.741 91.1449Z" fill="#D7441E"/>
<path fill-rule="evenodd" clip-rule="evenodd" d="M87.3286 611.506C84.7696 609.784 83.0787 606.859 83.0787 603.545V584.371C83.0787 579.081 87.3738 574.786 92.668 574.786H238.253C243.543 574.786 247.838 579.081 247.838 584.371V603.545C247.838 606.859 246.151 609.784 243.588 611.506C246.151 613.229 247.838 616.154 247.838 619.468V638.642C247.838 643.936 243.543 648.232 238.253 648.232H92.668C87.3738 648.232 83.0787 643.936 83.0787 638.642V619.468C83.0787 616.154 84.7696 613.229 87.3286 611.506Z" fill="#FFDBA3"/>
<path fill-rule="evenodd" clip-rule="evenodd" d="M204.246 607.623H246.849C246.107 609.201 244.945 610.543 243.508 611.507C243.801 611.705 244.082 611.918 244.353 612.144H230.55V648.232H226.029V612.144H188.237V648.232H183.716V612.144H177.947V648.232H173.425V612.144H115.049V648.232H110.527V612.144H86.4072C86.674 611.918 86.9543 611.705 87.2482 611.507C85.815 610.543 84.653 609.201 83.9116 607.623H136.831V574.786H141.353V607.623H147.122V574.786H151.643V607.623H199.725V574.786H204.246V607.623Z" fill="#FDA425"/>
<defs>
<linearGradient id="paint0_linear" x1="278.625" y1="302.496" x2="23.592" y2="76.5059" gradientUnits="userSpaceOnUse">
<stop/>
<stop offset="0.48"/>
<stop offset="1" stop-color="#FF4329"/>
</linearGradient>
<linearGradient id="paint1_linear" x1="136.752" y1="108.195" x2="155.048" y2="-11.9349" gradientUnits="userSpaceOnUse">
<stop stop-color="#E86135"/>
<stop offset="1" stop-color="#FFA396"/>
</linearGradient>
</defs>
</svg>
