<svg  viewBox="0 0 50 50" fill="none" xmlns="http://www.w3.org/2000/svg">
<path d="M15.2896 21.0104L25 11.3L34.715 21.0146L40.365 15.3646L25 0L9.64 15.36L15.2898 21.01L15.2896 21.0104ZM0 25L5.6502 19.349L11.3 24.9988L5.6498 30.649L0 25ZM15.2896 28.9902L25 38.7L34.7148 28.9856L40.3678 34.6326L40.365 34.6356L25 50L9.64 34.64L9.632 34.632L15.2902 28.9896L15.2896 28.9902ZM38.7 25.0024L44.3502 19.3522L50 25.002L44.35 30.6522L38.7 25.0024Z" fill="white"/>
<path d="M30.7305 24.997H30.7329L25.0001 19.2638L20.7627 23.5L20.2759 23.987L19.2719 24.9912L19.2639 24.999L19.2719 25.0072L25.0001 30.7362L30.7333 25.003L30.7361 24.9998L30.7309 24.997" fill="white"/>
</svg>
